
<svg xmlns="http://www.w3.org/2000/svg" version="1.1" xmlns:xlink="http://www.w3.org/1999/xlink" preserveAspectRatio="none" x="0px" y="0px" width="29px" height="21px" viewBox="0 0 29 21">
<defs>
<g id="Layer0_0_FILL">
<path fill="#000000" stroke="none" d="
M 96.35 93.3
L 96.05 93.55
Q 96 93.55 96 93.6 95.6 94.15 95.6 95.2
L 95.5 97.15
Q 95.35 98.95 96.65 99.45
L 106.7 103.25
Q 107.45 103.55 108.2 103.5 108.75 103.45 109.3 103.15
L 109.3 103.1 115.2 99.3 115.25 99.3 115.85 99.2
Q 115.9 99.2 116 99.15
L 123.5 94.25 123.65 94.05 123.3 87.85
Q 123.3 87.75 123.25 87.7 123.2 87.65 123.15 87.65
L 111.55 83.3
Q 111.5 83.25 111.45 83.25 111.35 83.25 111.35 83.3
L 103.55 87.75
Q 103.5 87.75 103.45 87.85 103.4 87.85 103.4 87.95
L 103.35 89 96.35 93.3
M 96.4 93.9
L 96.45 93.85 103.75 89.4
Q 103.75 89.35 103.8 89.3 103.85 89.25 103.85 89.2
L 103.9 88.1 104 88.05 111.5 83.8 122.25 87.85 122.8 88.05 122.85 88.6 123.15 93.8 115.95 98.6 115.85 98.65
Q 115.8 98.65 115.8 98.7
L 115.75 98.7 115.2 98.8 115.1 98.8
Q 115 98.8 114.95 98.85
L 109 102.7 109.05 102.7
Q 108.55 102.95 108.15 103 107.55 103.05 106.9 102.8
L 96.85 99
Q 95.85 98.55 96 97.2
L 96.1 95.2
Q 96.1 94.35 96.4 93.9 Z"/>

<path fill="#6E94BC" stroke="none" d="
M 104 88.05
L 115.3 92.4
Q 119.95 89.3 122.25 87.85
L 111.5 83.8 104 88.05 Z"/>

<path fill="#314D63" stroke="none" d="
M 115.8 93.1
L 115.95 98.6 123.15 93.8 122.85 88.6
Q 120.45 90.1 115.8 93.1 Z"/>

<path fill="#465870" stroke="none" d="
M 104 88.05
L 103.9 88.1 103.85 89.2 114.95 93.35 114.95 93.4 115.2 98.8 115.75 98.7 115.8 98.7
Q 115.8 98.65 115.85 98.65
L 115.95 98.6 115.8 93.1
Q 120.45 90.1 122.85 88.6
L 122.8 88.05 122.25 87.85
Q 119.95 89.3 115.3 92.4
L 104 88.05 Z"/>

<path fill="#C1BEB0" stroke="none" d="
M 97.1 94.2
L 96.45 93.85 96.4 93.9
Q 96.1 94.35 96.1 95.2
L 96 97.2
Q 95.85 98.55 96.85 99
L 106.9 102.8
Q 107.55 103.05 108.15 103 108.55 102.95 109.05 102.7
L 109 102.7 114.95 98.85
Q 115 98.8 115.1 98.8
L 115.2 98.8 114.95 93.4 109.25 97.55
Q 108.7 97.75 108.1 97.8 107.45 97.8 106.7 97.65 100.55 95.4 97.1 94.2 Z"/>

<path fill="#FFFFFF" stroke="none" d="
M 96.45 93.85
L 97.1 94.2
Q 100.55 95.4 106.7 97.65 107.45 97.8 108.1 97.8 108.7 97.75 109.25 97.55
L 114.95 93.4 114.95 93.35 103.85 89.2
Q 103.85 89.25 103.8 89.3 103.75 89.35 103.75 89.4
L 96.45 93.85 Z"/>
</g>
</defs>

<g transform="matrix( 1, 0, 0, 1, -95.05,-82.85) ">
<use xlink:href="#Layer0_0_FILL"/>
</g>
</svg>
