
<svg xmlns="http://www.w3.org/2000/svg" version="1.1" xmlns:xlink="http://www.w3.org/1999/xlink" preserveAspectRatio="none" x="0px" y="0px" width="49px" height="15px" viewBox="0 0 49 15">
<defs>
<g id="Layer0_0_FILL">
<path fill="#4D3F31" stroke="none" d="
M 299.7 192.95
L 250.7 192.95 250.7 207.95 299.7 207.95 299.7 192.95 Z"/>
</g>

<g id="Layer0_0_MEMBER_0_FILL">
<path fill="#A09261" stroke="none" d="
M 289.45 60.85
Q 287.25 61.35 287.25 61.85
L 287.25 61.9
Q 287.25 62 287.25 62.15 287.3 62.3 287.35 62.55 287.4 62.7 287.4 62.8 287.4 62.95 287.4 63.05 287.4 63.1 287.4 63.2 287.15 64.3 286.9 65.45 286.4 67.5 285.8 67.85 285.75 67.9 285.75 67.95
L 285.75 68
Q 285.8 68.25 286.15 68.55 286.55 68.9 286.95 68.9 287.3 68.9 287.55 68.55 287.65 68.4 288 67.35 288.3 66.35 288.35 66.35 288.85 66.3 289.35 66.15 292.1 67.55 292.45 68.55 292.55 68.7 292.65 68.7 292.9 68.7 293.2 68.4 293.4 68.2 293.4 68
L 293.4 67.85
Q 293.05 66.75 290.45 65.7 291.75 65 292.65 64.1 293.45 63.25 293.45 62.65 293.45 62.6 293.45 62.55 293.45 62.5 293.4 62.5 293.4 62.4 293.35 62.35 292.9 61.5 291.75 61.1 290.95 60.85 290 60.85 289.65 60.85 289.45 60.85
M 292.05 62.5
Q 292.05 62.75 291.55 63.3 291.15 63.7 290.75 64.05 290.45 64.3 289.75 64.55 289.1 64.8 288.75 64.8 288.6 64.8 288.6 64.75
L 288.6 64.65
Q 288.6 64.4 288.8 63.65 289.1 62.7 289.15 62.6 289.55 62.15 290.75 62.15 291.85 62.15 292.05 62.4
L 292.05 62.5
M 262.65 61.45
Q 262.6 61.1 262.35 60.8 262.3 60.7 261.95 60.7 261.3 60.7 259.95 60.95 258.75 61.15 258.2 61.3 257.75 61.45 257.2 64.5 256.8 66.9 256.75 68 256.75 68.05 256.75 68.1 256.9 68.55 258.15 68.9
L 258.2 68.9
Q 258.5 68.9 260.4 68.25 262.4 67.6 262.6 67.45 262.65 67.4 262.65 67.3
L 262.65 67.2
Q 262.6 66.95 262.35 66.65 262.1 66.3 261.85 66.1 261.75 66.05 261.6 66.05 260.85 66.05 258.5 67.2 258.8 65.55 258.85 65.5
L 260.4 65
Q 262 64.5 262.3 64.4 262.4 64.35 262.4 64.25
L 262.4 64.15
Q 262.4 64.05 262.1 63.75 261.8 63.5 261.75 63.4 261.75 63.35 261.5 63.35 261.05 63.35 260.05 63.55
L 259.1 63.7 259.1 63.65 259.2 63.2
Q 259.3 62.65 259.3 62.55 259.3 62.45 260.85 62.3 262.45 62.1 262.55 62 262.7 61.9 262.7 61.7 262.7 61.65 262.7 61.6 262.7 61.5 262.65 61.45
M 255.2 60.75
Q 254.55 60.75 253.2 60.95 252 61.2 251.45 61.35 251 61.5 250.45 64.55 250.05 66.95 250 68
L 250 68.15
Q 250.1 68.45 250.4 68.7 250.7 68.9 251 68.9 251.25 68.9 251.35 68.7 252.05 65.6 252.1 65.55
L 253.65 65.05
Q 255.25 64.55 255.55 64.45 255.65 64.35 255.65 64.25
L 255.65 64.2
Q 255.65 64.05 255.35 63.8 255.05 63.5 255 63.45 255 63.35 254.75 63.35 254.3 63.35 253.3 63.55
L 252.35 63.75 252.35 63.7 252.45 63.2
Q 252.55 62.65 252.55 62.6 252.55 62.5 254.1 62.3 255.7 62.15 255.8 62.05 255.95 61.95 255.95 61.75 255.95 61.65 255.95 61.6 255.95 61.55 255.9 61.5 255.85 61.15 255.6 60.85 255.55 60.75 255.2 60.75
M 268.75 61.4
Q 267.85 60.9 266.8 60.9 265.4 60.9 264.5 62.3 264.1 62.9 263.6 64.4 263.45 64.75 263.45 65.25 263.45 65.5 263.5 65.75 263.55 65.95 263.6 66.2 263.85 67.15 264.4 67.9 265 68.65 265.8 68.85 266.15 68.9 266.5 68.9 267.55 68.9 268.45 68.45 269.5 67.95 269.75 67.2 269.8 67.1 269.8 66.95 269.8 66.85 269.75 66.8 269.75 66.7 269.75 66.65 269.6 66.1 269.25 65.7
L 268.1 66.2
Q 268.1 66.3 268.1 66.35
L 268.15 66.4
Q 268.15 66.45 268.15 66.5 268.15 66.85 267.75 67.1 267.3 67.45 266.6 67.45 265.9 67.45 265.5 67.1 265 66.55 264.8 65.95 264.8 65.85 264.8 65.7 264.75 65.55 264.75 65.4 264.75 65.3 264.75 65.15 265.05 64.2 265.6 63.3 266.3 62.2 266.85 62.15 266.95 62.15 267 62.15 268 62.15 268.65 63.4 268.7 63.4 268.75 63.4 268.95 63.4 269.3 63.15 269.7 62.85 269.7 62.45 269.55 61.9 268.75 61.4
M 282.95 61.45
L 282.85 61.45
Q 282.25 61.45 280.25 64.05 278.2 66.7 277.95 67.85 277.95 67.95 277.95 68.05 277.95 68.1 277.95 68.15
L 277.95 68.2
Q 278.1 68.8 279.15 68.9
L 279.85 68
Q 280.2 67.75 280.9 67.55 281.7 67.25 282.55 67.25 283.1 67.25 283.65 67.4 283.6 67.55 283.6 67.7 283.6 67.9 283.65 68.05 283.65 68.15 283.65 68.2 283.7 68.3 283.75 68.4 283.9 68.6 284.35 68.6 284.7 68.6 284.9 68.45 284.95 68.45 284.95 67.85 284.95 67.3 284.9 66.2 284.8 64.8 284.65 63.8 284.55 63.15 284.4 62.65 284.25 62 284.1 61.85 283.65 61.4 283.35 61.4
L 283.15 61.45
Q 283.05 61.45 282.95 61.45
M 283.15 63.95
Q 283.2 63.95 283.2 64.1 283.25 64.2 283.3 64.4 283.3 64.6 283.35 64.9
L 283.4 65.5 283.4 65.55
Q 283.4 65.65 283 65.9
L 281.05 66.05
Q 281.55 65.1 281.85 64.65 282.4 63.9 282.9 63.9 283.05 63.9 283.15 63.95
M 276.45 61.4
Q 276.2 61.4 275.85 61.45 275.65 61.5 275.6 62.4 275.5 63.2 275.45 64 274.65 64.05 273.05 64.2 273.5 61.9 273.7 61.9 273.65 61.75 273.25 61.35 272.85 61 272.55 61 272.45 61 272.35 61.1 272.15 61.4 271.4 64.45 270.7 67.4 270.65 67.8 270.6 67.9 270.6 68
L 270.6 68.05
Q 270.6 68.1 270.6 68.2 270.65 68.2 270.65 68.25 270.75 68.6 271.15 68.75 271.45 68.9 271.8 68.9 271.95 68.9 272.15 68.55 272.5 67.6 272.55 66.65 272.7 66 272.8 65.4 273.35 65.4 274.5 65.35 274.9 65.3 275.25 65.3 275.1 66.75 274.9 68.25 275.1 68.75 275.5 68.85 275.55 68.85 275.6 68.85 275.85 68.85 276 68.65 276.1 68.4 276.25 68.15
L 276.25 68.1
Q 276.25 67.6 276.65 65.55 276.85 64.6 277.05 63.6 277.1 63.55 277.15 63.05 277.15 62.75 277.15 62.45 277.15 62.3 277.15 62.15 277.15 62 277.15 61.8
L 277.1 61.75
Q 277 61.4 276.45 61.4 Z"/>
</g>
</defs>

<g transform="matrix( 1, 0, 0, 1, -250.7,-192.95) ">
<use xlink:href="#Layer0_0_FILL"/>
</g>

<g transform="matrix( 1, 0, 0, 1, -247.2,-57.3) ">
<use xlink:href="#Layer0_0_MEMBER_0_FILL"/>
</g>
</svg>
