
<svg xmlns="http://www.w3.org/2000/svg" version="1.1" xmlns:xlink="http://www.w3.org/1999/xlink" preserveAspectRatio="none" x="0px" y="0px" width="16px" height="26px" viewBox="0 0 16 26">
<defs>
<g id="Layer0_0_FILL">
<path fill="#000000" stroke="none" d="
M 15.7 0.05
Q 15.6 0.05 15.5 0.1
L 9.05 4.5
Q 9 4.55 9 4.6
L 0.05 22.8
Q 0 22.85 0 22.9 0 22.95 0.05 23.05 1.15 24.9 3.35 25.6
L 3.4 25.65
Q 4.7 26.05 6.55 26 6.6 26 6.7 25.95 6.75 25.9 6.8 25.9
L 15.95 8 15.9 8.05 15.95 7.95 15.95 7.9
Q 16 7.85 16 7.75
L 15.9 0.3
Q 15.9 0.2 15.85 0.15 15.75 0.05 15.7 0.05
M 15.4 0.95
L 15.45 4.4 15.5 7.75 6.4 25.5
Q 4.3 25.6 3.55 25.15
L 3.55 25.2
Q 1.6 24.5 0.55 22.9
L 9.3 4.9 9.35 4.9 12.5 2.75 15.4 0.8 15.4 0.95 Z"/>

<path fill="#8C3735" stroke="none" d="
M 13.9 6.9
L 13.25 6.95
Q 12.75 6.95 12.55 6.8
L 3.55 25.15
Q 4.3 25.6 6.4 25.5
L 15.5 7.75
Q 14.9 7.7 14.6 7.3 14.3 6.85 14.35 6.75
L 13.9 6.9
M 15.45 4.4
L 15.4 0.95 13.9 4
Q 14.6 4.35 15.45 4.4 Z"/>

<path fill="#CCC395" stroke="none" d="
M 13.25 6.95
L 13.9 6.9 14.35 6.75
Q 14.3 6.85 14.6 7.3 14.9 7.7 15.5 7.75
L 15.45 4.4
Q 14.6 4.35 13.9 4
L 12.55 6.8
Q 12.75 6.95 13.25 6.95 Z"/>

<path fill="#B55653" stroke="none" d="
M 11.9 5.3
L 10.65 5.35
Q 9.65 5.35 9.5 5.15 9.351171875 4.9017578125 9.3 4.9
L 0.55 22.9
Q 1.6 24.5 3.55 25.2
L 3.55 25.15 12.55 6.8
Q 11.9 6.5 11.85 5.95 11.75 5.35 11.9 5.3
M 15.4 0.95
L 15.4 0.8 12.5 2.75
Q 12.7 3.1 13.05 3.4 13.45 3.75 13.9 4
L 15.4 0.95 Z"/>

<path fill="#F4EBBE" stroke="none" d="
M 10.65 5.35
L 11.9 5.3
Q 11.75 5.35 11.85 5.95 11.9 6.5 12.55 6.8
L 13.9 4
Q 13.45 3.75 13.05 3.4 12.7 3.1 12.5 2.75
L 9.35 4.9 9.3 4.9
Q 9.351171875 4.9017578125 9.5 5.15 9.65 5.35 10.65 5.35 Z"/>
</g>
</defs>

<g transform="matrix( 1, 0, 0, 1, 0,0) ">
<use xlink:href="#Layer0_0_FILL"/>
</g>
</svg>
