
<svg xmlns="http://www.w3.org/2000/svg" version="1.1" xmlns:xlink="http://www.w3.org/1999/xlink" preserveAspectRatio="none" x="0px" y="0px" width="16px" height="12px" viewBox="0 0 16 12">
<defs>
<g id="Layer0_0_FILL">
<path fill="#000000" stroke="none" d="
M 215.55 97.45
L 199.55 97.45 199.55 109.45 215.55 109.45 215.55 97.45
M 201.1 98.7
L 214 98.7 214 108.35 201.1 108.35 201.1 98.7 Z"/>

<path fill="#69C807" stroke="none" d="
M 214 98.7
L 201.1 98.7 201.1 108.35 214 108.35 214 98.7
M 213.05 99.45
L 213.05 100.7 202.05 100.7 202.05 99.45 213.05 99.45 Z"/>

<path fill="#85EC1B" stroke="none" d="
M 213.05 100.7
L 213.05 99.45 202.05 99.45 202.05 100.7 213.05 100.7 Z"/>
</g>
</defs>

<g transform="matrix( 1, 0, 0, 1, -199.55,-97.45) ">
<use xlink:href="#Layer0_0_FILL"/>
</g>
</svg>
