
<svg xmlns="http://www.w3.org/2000/svg" version="1.1" xmlns:xlink="http://www.w3.org/1999/xlink" preserveAspectRatio="none" x="0px" y="0px" width="16px" height="12px" viewBox="0 0 16 12">
<defs>
<g id="Layer0_0_FILL">
<path fill="#000000" stroke="none" d="
M 235.45 97.45
L 219.45 97.45 219.45 109.45 235.45 109.45 235.45 97.45
M 220.95 98.7
L 233.9 98.7 233.9 108.35 220.95 108.35 220.95 98.7 Z"/>

<path fill="#0099FF" stroke="none" d="
M 233.9 98.7
L 220.95 98.7 220.95 108.35 233.9 108.35 233.9 98.7
M 221.9 99.45
L 232.95 99.45 232.95 100.7 221.9 100.7 221.9 99.45 Z"/>

<path fill="#3FB1FD" stroke="none" d="
M 232.95 99.45
L 221.9 99.45 221.9 100.7 232.95 100.7 232.95 99.45 Z"/>
</g>
</defs>

<g transform="matrix( 1, 0, 0, 1, -219.45,-97.45) ">
<use xlink:href="#Layer0_0_FILL"/>
</g>
</svg>
