
<svg xmlns="http://www.w3.org/2000/svg" version="1.1" xmlns:xlink="http://www.w3.org/1999/xlink" preserveAspectRatio="none" x="0px" y="0px" width="16px" height="12px" viewBox="0 0 16 12">
<defs>
<g id="Layer0_0_FILL">
<path fill="#000000" stroke="none" d="
M 195.65 97.45
L 179.65 97.45 179.65 109.45 195.65 109.45 195.65 97.45
M 181.2 98.7
L 194.1 98.7 194.1 108.35 181.2 108.35 181.2 98.7 Z"/>

<path fill="#FF0000" stroke="none" d="
M 194.1 98.7
L 181.2 98.7 181.2 108.35 194.1 108.35 194.1 98.7
M 182.15 99.45
L 193.15 99.45 193.15 100.7 182.15 100.7 182.15 99.45 Z"/>

<path fill="#F88383" stroke="none" d="
M 193.15 99.45
L 182.15 99.45 182.15 100.7 193.15 100.7 193.15 99.45 Z"/>
</g>
</defs>

<g transform="matrix( 1, 0, 0, 1, -179.65,-97.45) ">
<use xlink:href="#Layer0_0_FILL"/>
</g>
</svg>
