
<svg xmlns="http://www.w3.org/2000/svg" version="1.1" xmlns:xlink="http://www.w3.org/1999/xlink" preserveAspectRatio="none" x="0px" y="0px" width="22px" height="22px" viewBox="0 0 22 22">
<defs>
<g id="Layer0_0_FILL">
<path fill="#000000" stroke="none" d="
M 21.85 4.95
Q 21.9 4.85 21.9 4.75 21.9 4.65 21.85 4.55
L 17.5 0.1
Q 17.4 0 17.3 0 17.2 0 17.15 0.1
L 10.85 6.25 4.8 0.15
Q 4.7 0.05 4.55 0.05 4.45 0.05 4.4 0.15
L 0.15 4.4
Q 0.05 4.45 0.05 4.55 0.05 4.7 0.15 4.8
L 6.1 10.9 0.1 17.2
Q 0 17.25 0 17.35 0 17.45 0.1 17.55
L 4.15 21.95
Q 4.2 22 4.3 22 4.4 22 4.5 21.95
L 10.9 15.9 17.2 21.95
Q 17.25 22 17.35 22 17.45 22 17.55 21.95
L 21.95 17.6
Q 22 17.5 22 17.4 22 17.3 21.95 17.25
L 15.6 10.95 21.85 4.95
M 10.85 6.9
Q 10.95 6.9 11.05 6.85
L 17.3 0.65 21.25 4.75 15.1 10.8
Q 15 10.85 15 10.95 15 11.05 15.1 11.15
L 21.35 17.4 17.35 21.4 11.1 15.35
Q 11 15.25 10.9 15.25 10.8 15.25 10.75 15.35
L 4.3 21.4 0.6 17.35 6.65 11.1
Q 6.7 11 6.7 10.9 6.7 10.8 6.65 10.75
L 0.65 4.55 4.55 0.7 10.7 6.85
Q 10.75 6.9 10.85 6.9 Z"/>

<path fill="#CECE5F" stroke="none" d="
M 11.05 6.85
Q 10.95 6.9 10.85 6.9 10.75 6.9 10.7 6.85
L 4.55 0.7 0.65 4.55 6.65 10.75
Q 6.7 10.8 6.7 10.9 6.7 11 6.65 11.1
L 0.6 17.35 4.3 21.4 10.75 15.35
Q 10.8 15.25 10.9 15.25 11 15.25 11.1 15.35
L 17.35 21.4 21.35 17.4 15.1 11.15
Q 15 11.05 15 10.95 15 10.85 15.1 10.8
L 21.25 4.75 17.3 0.65 11.05 6.85
M 10.75 8
L 17.35 1.45 20.4 4.6 13.9 11.05 20.25 17.25 17.25 20.4 10.9 14 4.25 20.2 1.6 17.4 7.8 10.9 1.55 4.6 4.35 1.8 10.75 8 Z"/>

<path fill="#FEFE61" stroke="none" d="
M 17.35 1.45
L 10.75 8 4.35 1.8 1.55 4.6 7.8 10.9 1.6 17.4 4.25 20.2 10.9 14 17.25 20.4 20.25 17.25 13.9 11.05 20.4 4.6 17.35 1.45 Z"/>
</g>
</defs>

<g transform="matrix( 1, 0, 0, 1, 0,0) ">
<use xlink:href="#Layer0_0_FILL"/>
</g>
</svg>
